<svg id="Layer_1" data-name="Layer 1" xmlns="http://www.w3.org/2000/svg" viewBox="0 0 139.46 131.6"><defs><style>.cls-1{fill:#afafaf;}</style></defs><title>cross-browser</title><path id="internet-explorer-1" class="cls-1" d="M86.45,672.5c3.56-7.92.93-12.62-5.43-12.62-3,0-7.19,1.57-10.15,3-10.53-.11-16.58,7.34-18.54,14.41,3.09-3.76,7.06-7.26,9.6-8-8.12,6.63-14,17.42-14,24.48,0,3.9,1.73,6.56,5.75,6.56,3.3,0,6-1.57,8.42-2.68a15.6,15.6,0,0,0,7.42,1.89c9.48,0,15.49-4.94,18.17-12.88H77.54c-1.51,2.8-3.62,4.47-7.24,4.47a7.74,7.74,0,0,1-7.74-7.74H88.39c0-.47,0-1.06,0-1.58A20.09,20.09,0,0,0,86.45,672.5ZM53.27,687.69a19.31,19.31,0,0,0,7.53,9.25C50.73,702,49,695,53.27,687.69Zm9.39-9.38c0.15-2.8,3.18-7.28,7.94-7.28a8,8,0,0,1,7.7,7.28H62.66ZM77.14,664.2c5.53-2.58,12.34-2.27,8.53,6.95A19.86,19.86,0,0,0,77.14,664.2Z" transform="translate(-47.93 -615.48)"/><path id="chrome-1" class="cls-1" d="M103.89,622.53a20.24,20.24,0,0,1,33.39,4H121.6c-2.83,0-4.65-.06-6.63,1a9.35,9.35,0,0,0-4.69,6.15Zm8.62,13.2a6.73,6.73,0,1,0,6.73-6.73A6.74,6.74,0,0,0,112.51,635.73Zm9.34,8.81a9.07,9.07,0,0,1-10.62-4.3c-1.85-3.19-6.73-11.7-9-15.57a20,20,0,0,0-3.28,11,20.25,20.25,0,0,0,16.32,19.94Zm3.64-15.72a9.41,9.41,0,0,1,1.7,11.42c-1.61,2.77-6.73,11.46-9.21,15.65a20.33,20.33,0,0,0,21.52-20.27,21,21,0,0,0-1.17-6.8H125.5Z" transform="translate(-47.93 -615.48)"/><path id="firefox-1" class="cls-1" d="M167.14,659.88a20.25,20.25,0,1,0,20.25,20.25A20.25,20.25,0,0,0,167.14,659.88Zm13.5,14.61c-2.15-5.6-7.53-7.77-9.34-7.66,6,2.32,7.38,10.22,6.85,12.56-0.52-2.73-2.17-5.09-3.16-5.71,5.77,13.51-8.16,17.66-12.41,13a6.76,6.76,0,0,0,4.88-.94c1.52-1,1.66-1.08,2.63-1.15,1.16-.09-0.07-2.37-2.6-2-1,.16-2.75,1.38-4.86.58-2.54-1-2.46-4.44.16-3.4a2.84,2.84,0,0,0,.15-2.13,13,13,0,0,1,2.31-1.54,2.35,2.35,0,0,0,1.34-2.08,1.72,1.72,0,0,0-1.29-.33c-2.93.19-3.13-.87-3.32-1.36a4.27,4.27,0,0,1,2.3-3.26,4.75,4.75,0,0,0-4.71,1.95,7.84,7.84,0,0,0-3.57-.05,5,5,0,0,1-1.48-2,16.82,16.82,0,0,1,12.61-5.7C177.11,663.26,181.08,670.48,180.64,674.49Z" transform="translate(-47.93 -615.48)"/><rect class="cls-1" x="81.97" y="679.47" width="74.56" height="1.32" transform="translate(-493.93 -331.95) rotate(-45)"/><rect class="cls-1" x="118.59" y="642.85" width="1.32" height="74.56" transform="translate(-493.93 -331.95) rotate(-45)"/><path class="cls-1" d="M100.29,726.42c0-11.64,9.36-20.66,21.57-20.66a22,22,0,0,1,14,4.76l-4.79,7a14.54,14.54,0,0,0-9.19-3.51c-6.79,0-12,5.36-12,12.44s5.25,12.44,12,12.44a14.76,14.76,0,0,0,9.5-3.85l5,6.9a22.09,22.09,0,0,1-14.49,5.16C109.64,747.08,100.29,738.06,100.29,726.42Z" transform="translate(-47.93 -615.48)"/></svg>