<svg id="Layer_1" data-name="Layer 1" xmlns="http://www.w3.org/2000/svg" viewBox="0 0 103.65 116.38"><defs><style>.cls-1{fill:#afafaf;}</style></defs><title>css-file</title><polygon class="cls-1" points="26.82 81.74 45.46 91.93 45.46 84.92 35.15 79.73 45.46 74.55 45.46 67.52 26.82 77.71 26.82 81.74"/><polygon class="cls-1" points="48.22 99.1 54.9 99.1 68.8 62.73 62.2 62.73 48.22 99.1"/><polygon class="cls-1" points="90.01 77.71 71.37 67.52 71.37 74.55 81.69 79.73 71.37 84.92 71.37 91.93 90.01 81.74 90.01 77.71"/><path class="cls-1" d="M670.51,623.09H612.85v19.55H600.77a1.19,1.19,0,0,0-1.1,1v27.88a1.28,1.28,0,0,0,1.1,1.11h12.08v66.83h90.47V655.9Zm-65.1,34.5a8.89,8.89,0,0,1,9.22-8.83,9.42,9.42,0,0,1,6,2l-2,3a6.22,6.22,0,0,0-3.93-1.5,5.32,5.32,0,0,0,0,10.64,6.31,6.31,0,0,0,4.06-1.65l2.14,3a9.45,9.45,0,0,1-6.2,2.21A8.89,8.89,0,0,1,605.41,657.59Zm93.36,77.33H617.4V672.64h37.05a1.31,1.31,0,0,0,1.13-1.11V643.65a1.22,1.22,0,0,0-1.13-1H617.4v-15h50v31.82h31.37v75.46Zm-70.63-76c-3.23-.7-5.17-2.47-5.17-5.09,0-2.94,2.42-5.11,5.81-5.11a8.48,8.48,0,0,1,5.76,2.17l-2,2.81a5.64,5.64,0,0,0-3.54-1.64,1.68,1.68,0,0,0-1.9,1.45c0,1,.68,1.66,2.93,2.17,3.65,0.84,5.44,2.64,5.44,5.37,0,3.06-2.46,5.33-6.39,5.33a8.54,8.54,0,0,1-6.42-2.73l2.17-2.71a6.12,6.12,0,0,0,4.23,2c1.31,0,2.33-.71,2.33-1.74S630.72,659.51,628.14,659Zm14.4,0c-3.23-.7-5.17-2.47-5.17-5.09,0-2.94,2.42-5.11,5.81-5.11a8.48,8.48,0,0,1,5.76,2.17l-2,2.81a5.64,5.64,0,0,0-3.54-1.64,1.68,1.68,0,0,0-1.9,1.45c0,1,.68,1.66,2.93,2.17,3.65,0.84,5.44,2.64,5.44,5.37,0,3.06-2.46,5.33-6.39,5.33a8.54,8.54,0,0,1-6.42-2.73l2.17-2.71a6.12,6.12,0,0,0,4.23,2c1.31,0,2.33-.71,2.33-1.74S645.11,659.51,642.54,659Z" transform="translate(-599.67 -623.09)"/></svg>