<svg id="Layer_1" data-name="Layer 1" xmlns="http://www.w3.org/2000/svg" viewBox="0 0 62.24 82.99"><defs><style>.cls-1{fill:#afafaf;}</style></defs><title>lab</title><path class="cls-1" d="M360.07,285.82C352,273.16,340.79,262,340.21,246h-7a46.19,46.19,0,0,0,6,21H319.61c3-6,6.4-12,6.69-21h-6.95c-0.58,16-11.83,27.26-19.86,39.82a8.62,8.62,0,0,0-.83,3.69A8.45,8.45,0,0,0,307,298h45.48a8.46,8.46,0,0,0,8.38-8.49A8.61,8.61,0,0,0,360.07,285.82Z" transform="translate(-298.66 -215.01)"/><circle class="cls-1" cx="24.21" cy="10.37" r="6.92"/><circle class="cls-1" cx="39.77" cy="15.56" r="5.19"/><circle class="cls-1" cx="38.04" cy="3.46" r="3.46"/><circle class="cls-1" cx="27.66" cy="24.21" r="3.46"/></svg>