<svg id="Layer_1" data-name="Layer 1" xmlns="http://www.w3.org/2000/svg" viewBox="0 0 121.94 118.97"><defs><style>.cls-1{fill:#afafaf;}</style></defs><title>responsive</title><path class="cls-1" d="M434.41,681.49a0.85,0.85,0,0,0-.85-0.85H346.34a0.85,0.85,0,0,0-.85.85V734a0.85,0.85,0,0,0,.85.85h87.22a0.85,0.85,0,0,0,.85-0.85v-52.5ZM430.6,731H349.73V684.88H430.6V731Z" transform="translate(-324.75 -621.79)"/><path class="cls-1" d="M399.69,735.68v1.74a0.85,0.85,0,0,1-.89.8H381.67a1,1,0,0,1-1-.8v-1.74H334.06v4.18a0.94,0.94,0,0,0,.9.9H445.9a0.85,0.85,0,0,0,.79-0.9v-4.18h-47Z" transform="translate(-324.75 -621.79)"/><path class="cls-1" d="M434.41,626a0.85,0.85,0,0,0-.85-0.85h-66a0.85,0.85,0,0,0-.85.85v51.23a0.85,0.85,0,0,0,.85.85h66a0.85,0.85,0,0,0,.85-0.85V626Zm-65.08,25.26a0.87,0.87,0,1,1,.87.87A0.87,0.87,0,0,1,369.32,651.29Zm63.58,0a1.73,1.73,0,1,1-1.73-1.73A1.73,1.73,0,0,1,432.9,651.29Zm-5.27-19.76v40.65h-55V631.53h55Z" transform="translate(-324.75 -621.79)"/><path class="cls-1" d="M343,681.49a0.85,0.85,0,0,0-.85-0.85H325.6a0.85,0.85,0,0,0-.85.85v35.57a0.85,0.85,0,0,0,.85.85h16.51a0.85,0.85,0,0,0,.85-0.85V681.49Zm-8.5.15a0.64,0.64,0,1,1-.64.64A0.64,0.64,0,0,1,334.46,681.64Zm-0.95,2h2.74a0.42,0.42,0,1,1,0,.85h-2.74A0.42,0.42,0,1,1,333.51,683.61Zm-1.59-.26a0.53,0.53,0,1,1-.53.53A0.53,0.53,0,0,1,331.92,683.35Zm2.54,33.12a1.48,1.48,0,1,1,1.48-1.48A1.48,1.48,0,0,1,334.46,716.47Zm7.23-4.07H326.44V685.72h15.24V712.4Z" transform="translate(-324.75 -621.79)"/><path class="cls-1" d="M363.28,622.64a0.85,0.85,0,0,0-.85-0.85H325.6a0.85,0.85,0,0,0-.85.85v54.62a0.85,0.85,0,0,0,.85.85h36.84a0.85,0.85,0,0,0,.85-0.85V622.64Zm-18.71,1.16a0.67,0.67,0,1,1-.67.67A0.67,0.67,0,0,1,344.57,623.79Zm0,52.44a1.74,1.74,0,1,1,1.74-1.74A1.74,1.74,0,0,1,344.57,676.23Zm15.74-4.9h-33V627.72h33v43.61Z" transform="translate(-324.75 -621.79)"/></svg>