<svg id="Layer_1" data-name="Layer 1" xmlns="http://www.w3.org/2000/svg" viewBox="0 0 83 19"><defs><style>.cls-1{fill:none;}.cls-2{fill:#fff;}</style></defs><title>s-core</title><path class="cls-1" d="M825,387.52v-2.08c0-.61-0.12-1.44-0.61-1.44h-4.06a1.8,1.8,0,0,0-1.33,1.44V389h5.39C824.88,389,825,388.13,825,387.52Z" transform="translate(-747 -378)"/><path class="cls-1" d="M771,393.43V382c0-2.2,1.8-4,4.69-4H761v2.06a1.11,1.11,0,0,1-1.34.94h-6.48a1,1,0,0,0-1.17,1.22v0.1a2,2,0,0,0,.79,1.61L759,389a4.42,4.42,0,0,1,2,3.65v0.8c0,2.06-1.34,3.57-4.38,3.57h19.07C772.8,397,771,395.49,771,393.43Zm-3-5.48a1.08,1.08,0,0,1-1.24,1.05H764v-1.87c0-.82-0.1-1.13.71-1.13H768v1.95Z" transform="translate(-747 -378)"/><path class="cls-1" d="M795.29,384h-3.85a2.08,2.08,0,0,0-1.44,1.56v7.73c0,0.55,1,.71,1.44.71h3.85a0.58,0.58,0,0,0,.71-0.71v-7.73C796,384.89,795.84,384,795.29,384Z" transform="translate(-747 -378)"/><path class="cls-1" d="M748.77,394h7.32c1.16,0,.91-0.16.91-0.81V392.8a2.06,2.06,0,0,0-.73-1.73L750,386.15a4.44,4.44,0,0,1-2-3.65V382c0-2.2,1.61-4,4.5-4H747v19h1v-1.65C748,394.53,748,394,748.77,394Z" transform="translate(-747 -378)"/><path class="cls-1" d="M784,378v2.06c0,0.69-.05.94-0.74,0.94H776a1,1,0,0,0-1,1.12v11.17c0,0.55.41,0.71,1,.71h7.73c0.67,0,.32.53,0.32,1.2V397h7.29c-3,0-5.29-1.51-5.29-3.57V385.3c0-2.06,2.26-3.3,5.29-3.3h4.26c2.89,0,4.45,1.24,4.45,3.3v8.13c0,2.06-1.55,3.57-4.45,3.57H803V385.3c0-2.06,2.39-3.3,5.26-3.3H813v1.36c0,0.84.23,0.64-.46,0.64H808.4c-0.41,0-.4.89-0.4,1.56v10.19c0,1.1-.84,1.25-1.94,1.25H830V378H784Zm45,9.72c0,2.4-1.51,3.63-4.73,3.63a18.58,18.58,0,0,1-5.27-.89v2.83c0,0.61.85,0.71,1.33,0.71h7.09c0.61,0,.57.67,0.57,1.29V397h-7.93c-2.85,0-5.07-1.51-5.07-3.51v-8.3c0-2,2.22-3.19,5.07-3.19h4.55c2.81,0,4.38,1.2,4.38,3.19v2.53Z" transform="translate(-747 -378)"/><path class="cls-2" d="M783.68,394H776c-0.55,0-1-.16-1-0.71V382.12a1,1,0,0,1,1-1.12h7.3c0.69,0,.74-0.25.74-0.94V378h-8.31c-2.9,0-4.69,1.79-4.69,4v11.44c0,2.06,1.8,3.57,4.69,3.57H784v-1.8C784,394.53,784.36,394,783.68,394Z" transform="translate(-747 -378)"/><path class="cls-2" d="M761,393.43v-0.8a4.44,4.44,0,0,0-2-3.65l-6.35-5.06a1.86,1.86,0,0,1-.68-1.61v-0.1a1,1,0,0,1,1.17-1.22h6.48a1.11,1.11,0,0,0,1.34-.94V378h-8.5c-2.89,0-4.5,1.79-4.5,4v0.51a4.59,4.59,0,0,0,2.11,3.65l6.21,4.91a2,2,0,0,1,.68,1.73v0.39c0,0.65.25,0.81-.91,0.81h-7.32c-0.82,0-.77.53-0.77,1.35V397h8.62C759.66,397,761,395.49,761,393.43Z" transform="translate(-747 -378)"/><path class="cls-2" d="M764,387.13V389h2.76a1.08,1.08,0,0,0,1.24-1.05V386h-3.29C763.9,386,764,386.32,764,387.13Z" transform="translate(-747 -378)"/><path class="cls-2" d="M824.62,382h-4.55c-2.85,0-5.07,1.2-5.07,3.19v8.3c0,2,2.22,3.51,5.07,3.51H828v-1.71c0-.61,0-1.29-0.57-1.29h-7.09c-0.49,0-1.33-.1-1.33-0.71V389h0v-3.56a1.8,1.8,0,0,1,1.33-1.44h4.06c0.49,0,.61.83,0.61,1.44v2.08c0,0.61-.12,1.48-0.61,1.48H819v1.46a18.58,18.58,0,0,0,5.27.89c3.22,0,4.73-1.22,4.73-3.63v-2.53C829,383.2,827.43,382,824.62,382Z" transform="translate(-747 -378)"/><path class="cls-2" d="M819.4,388.62v1.81l0.06,0v-1.84H819.4Z" transform="translate(-747 -378)"/><path class="cls-2" d="M808,395.75V385.56c0-.67,0-1.56.4-1.56h4.14c0.69,0,.46.2,0.46-0.64V382h-4.74c-2.87,0-5.26,1.24-5.26,3.3V397h3.06C807.16,397,808,396.86,808,395.75Z" transform="translate(-747 -378)"/><path class="cls-2" d="M800,393.43V385.3c0-2.06-1.55-3.3-4.45-3.3h-4.26c-3,0-5.29,1.24-5.29,3.3v8.13c0,2.06,2.26,3.57,5.29,3.57h4.26C798.45,397,800,395.49,800,393.43Zm-4-.14a0.58,0.58,0,0,1-.71.71h-3.85c-0.43,0-1.44-.16-1.44-0.71v-7.73a2.08,2.08,0,0,1,1.44-1.56h3.85c0.55,0,.71.89,0.71,1.56v7.73Z" transform="translate(-747 -378)"/></svg>