<svg id="Layer_1" data-name="Layer 1" xmlns="http://www.w3.org/2000/svg" viewBox="0 0 416 176"><defs><style>.cls-1{fill:#71a5a1;}.cls-2{fill:#9dcecc;}.cls-2,.cls-4,.cls-5,.cls-6,.cls-7{fill-rule:evenodd;}.cls-3,.cls-6{fill:#fff;}.cls-4{fill:#0070ba;}.cls-5{fill:#1b86c1;}</style></defs><title>css_module</title><path class="cls-1" d="M215,481.44c0-8.71,6-12.68,11-12.68a13.84,13.84,0,0,1,9.39,4.11c0.37,0.37.82,0.78,1.2,1.18,1.93,2.05,3,3.18,6.22,3.18,4.4,0,10.78-5,10.78-14s-6.38-14-10.78-14c-3.21,0-4.3,1.13-6.23,3.18-0.38.41-.84,0.81-1.23,1.2-5.22,5.25-13.26,5.24-17.09.21A14.69,14.69,0,0,1,215,445V374H24.75c-4.82,0-9.75,3.3-9.75,8.12v158c0,4.82,4.93,9.91,9.75,9.91H215V481.44Z" transform="translate(-15 -374)"/><path class="cls-2" d="M421.42,374H226v72c0,3.23,1.3,3.87,4.05,1,2.29-2.44,5.53-6.13,12.79-6.13,9.71,0,20.15,9.38,20.15,23.35s-10.33,23.35-20,23.35c-7.25,0-10.62-3.69-12.91-6.13-2.93-3.06-4-1.65-4,1V550H421.42c4.82,0,9.58-4.09,9.58-8.91v-158C431,378.3,426.24,374,421.42,374Z" transform="translate(-15 -374)"/><path class="cls-3" d="M182.93,470.75a35.38,35.38,0,0,0-15.59,3.63c-1.6-3.19-3.21-6-3.48-8.08a21.45,21.45,0,0,1-.3-6.79c0.38-2.9,2.06-7,2-7.31s-0.38-1.78-3.84-1.81-6.44.67-6.78,1.58a34.22,34.22,0,0,0-1.43,5.13c-0.61,3.15-6.93,14.36-10.51,20.23a21.07,21.07,0,0,1-2.38-5.91,21.45,21.45,0,0,1-.3-6.79c0.38-2.9,2.06-7,2-7.31s-0.38-1.78-3.84-1.81-6.44.67-6.78,1.58-0.72,3.06-1.43,5.13S121.2,483,119,487.86c-1.12,2.47-2.1,4.46-2.78,5.81h0l-0.12.24c-0.59,1.15-.94,1.79-0.94,1.79v0a3.9,3.9,0,0,1-1.22,1.63c-0.17,0-.52-2.26.08-5.35,1.25-6.49,4.25-16.61,4.22-17,0-.18.56-1.94-2-2.86a3.13,3.13,0,0,0-3.54.6,0.83,0.83,0,0,0-.38.53s2.73-11.38-5.2-11.38c-5,0-11.83,5.42-15.21,10.34-2.14,1.16-6.7,3.66-11.55,6.32l-5.56,3.06-0.37-.41c-9.61-10.26-27.39-17.51-26.63-31.3,0.27-5,2-18.21,34.15-34.23,26.32-13.12,47.4-9.51,51-1.51,5.2,11.43-11.26,32.67-38.6,35.73-10.42,1.17-15.9-2.87-17.26-4.37s-1.65-1.65-2.19-1.36c-0.87.48-.32,1.88,0,2.71,0.82,2.12,4.17,5.89,9.88,7.77,5,1.65,17.25,2.55,32-3.17,16.56-6.41,29.5-24.23,25.7-39.13-3.86-15.15-29-20.13-52.76-11.69-14.15,5-29.47,12.92-40.48,23.22C36.25,436.18,34.16,446.84,35,451.3c3.06,15.83,24.88,26.14,33.61,33.78l-1.2.66c-4.38,2.17-21,10.87-25.17,20.07-4.72,10.43.75,17.92,4.37,18.92,11.22,3.12,22.73-2.49,28.92-11.72s5.43-21.24,2.59-26.73l-0.11-.2,3.43-2c2.23-1.31,4.42-2.53,6.32-3.56a42.47,42.47,0,0,0-2.25,11.44c-0.48,5.92,2,13.57,5.13,16.59a5.62,5.62,0,0,0,4.15,1.36c3.69,0,5.38-3.07,7.24-6.71,2.28-4.46,4.3-9.65,4.3-9.65s-2.54,14,4.37,14c2.52,0,5-3.26,6.18-4.93v0l0.19-.33c0.26-.4.41-0.65,0.41-0.65v-0.07c1-1.76,3.26-5.76,6.62-12.37,4.35-8.53,8.52-19.22,8.52-19.22a57.16,57.16,0,0,0,1.66,6.94A64.83,64.83,0,0,0,137.9,485c-1,1.4-1.63,2.2-1.63,2.2l0,0c-0.81,1.07-1.71,2.22-2.66,3.35-3.43,4.09-7.52,8.75-8.07,10.1-0.64,1.59-.49,2.76.75,3.69,0.91,0.69,2.53.79,4.22,0.68a19.24,19.24,0,0,0,6.32-1.44,21.28,21.28,0,0,0,5.44-2.86A12.09,12.09,0,0,0,147.5,490a21.71,21.71,0,0,0-2-7.56l0.92-1.33a143.68,143.68,0,0,0,9.42-16.28,57.13,57.13,0,0,0,1.66,6.94,48.38,48.38,0,0,0,3.05,6.92c-5,4.05-8.08,8.77-9.16,11.86-2,5.72-.43,8.31,2.49,8.9a9,9,0,0,0,4.59-.93,21.29,21.29,0,0,0,5.81-3c3.37-2.47,6.6-5.94,6.41-10.63a20,20,0,0,0-1.45-6.29,32.87,32.87,0,0,1,16.68-1.93c15,1.75,17.9,11.09,17.34,15a9.87,9.87,0,0,1-4.75,6.71c-1,.65-1.37.87-1.28,1.36,0.13,0.7.61,0.67,1.51,0.52,1.23-.21,7.86-3.18,8.14-10.4C207.27,480.73,198.49,470.67,182.93,470.75ZM67.59,509.64c-5,5.41-11.88,7.45-14.85,5.73-3.21-1.86-1.94-9.82,4.15-15.56a78.72,78.72,0,0,1,11.67-8.7l3.07-1.85,0.33-.19h0l0.77-.46A21.5,21.5,0,0,1,67.59,509.64Zm36.11-24.55c-1.73,4.21-5.34,15-7.54,14.4-1.89-.5-3-8.68-0.38-16.74A37.32,37.32,0,0,1,101.66,472c2.71-3,5.68-4,6.41-2.79C109,470.74,104.78,482.45,103.7,485.09Zm29.83,14.24a2.3,2.3,0,0,1-1.71.44c-0.23-.14.3-0.64,0.3-0.64s3.73-4,5.2-5.84c0.85-1.06,1.85-2.32,2.93-3.74,0,0.14,0,.28,0,0.42C140.25,494.77,135.6,498,133.53,499.32Zm23-5.24c-0.55-.39-0.46-1.64,1.34-5.56a21,21,0,0,1,5.11-6.59,9.5,9.5,0,0,1,.52,2.9C163.44,490.88,159.13,493.14,156.52,494.08Z" transform="translate(-15 -374)"/><polygon class="cls-4" points="266.23 43.41 365.85 43.41 356.95 145.25 316.32 156.94 274.58 145.25 266.23 43.41"/><polygon class="cls-5" points="316.35 53.26 316.35 147.07 349.9 137.42 357.26 53.26 316.35 53.26"/><polygon class="cls-6" points="285.71 77.37 315.76 77.35 286.27 90.15 287.94 101.84 331.35 101.84 329.68 118.54 315 121.3 301.85 117.98 300.74 108.52 288.49 108.52 290.16 128 316.32 135.23 341.36 127.44 344.71 89.11 317.9 89.11 347 77.21 347 65.11 284.04 65.11 285.71 77.37"/><polygon class="cls-7" points="286.45 17.28 286.45 36.2 302.04 36.2 302.04 30.08 293.13 30.08 293.13 23.69 302.04 23.69 302.04 17.28 286.45 17.28"/><polygon class="cls-7" points="308.3 17.28 308.3 22.4 313.73 30.08 308.72 30.08 308.72 36.2 323.74 36.2 323.74 30.36 318.73 23.96 323.74 23.96 323.74 17.28 308.3 17.28"/><polygon class="cls-7" points="329.75 17.28 329.75 22.4 335.18 30.08 330.17 30.08 330.17 36.2 345.2 36.2 345.2 30.36 340.19 23.96 345.2 23.96 345.2 17.28 329.75 17.28"/></svg>