<svg id="Layer_1" data-name="Layer 1" xmlns="http://www.w3.org/2000/svg" viewBox="0 0 210.57 68"><defs><style>.cls-1{fill:none;}.cls-2{fill:#fff;}.cls-3{fill:#87c6c3;}</style></defs><title>logo</title><path class="cls-1" d="M509.39,374H488v16.92C488,380.22,495.31,374,509.39,374Z" transform="translate(-487.54 -374)"/><path class="cls-1" d="M698,388.07V374H681.1C689.41,374,696,380.1,698,388.07Z" transform="translate(-487.54 -374)"/><path class="cls-1" d="M697.29,395.37c0,0.05-.15.1-0.16,0.15a16.71,16.71,0,0,1-31.92,0c0-.05,0-0.1-0.06-0.15a16.8,16.8,0,0,1-.92-4.73c0-.19-0.23-0.37-0.23-0.55h0a13.1,13.1,0,0,1,.39-1.76c0-.07.14-0.14,0.15-0.21A16.76,16.76,0,0,1,681.1,374H509.39a43,43,0,0,1,15.46,2.7,1.68,1.68,0,0,1,1.05,1.87l-0.5,6.49c-0.09,1.19-.92,1.51-2.1,1a36.66,36.66,0,0,0-13.53-2.56c-8,0-11.25,2.74-11.25,7.22s2.83,7.77,11.16,10.61c14,4.76,19.75,10.52,19.75,20.39,0,11.8-7.41,18.47-23.5,18.47-5.76,0-11.89-.87-16.78-3.25a1.86,1.86,0,0,1-1.1-2l0.59-6.9c0.09-1.19,1-1.6,2.1-1a32.37,32.37,0,0,0,15.82,3.61c8,0,11.89-3,11.89-8.51,0-5.76-3.61-8.5-12.11-11.25-12.16-3.93-18.33-9.88-18.33-20V442H698V393.22C697,394,697.5,394.67,697.29,395.37ZM594,413.87c0,17.92-10.91,26.34-26,26.34s-26-8.41-26-26.34v-37a1.69,1.69,0,0,1,1.49-1.83h7.32a2.27,2.27,0,0,1,2.19,1.83v36.4c0,11,4.39,17.47,15,17.47s15-6.49,15-17.47v-36.4a1.67,1.67,0,0,1,1.46-1.83h7.32c0.92,0,2.22.92,2.22,1.83v37Zm56-31.19c0,1-1,1.31-1.9,1.31H620v17h25.91a2.31,2.31,0,0,1,2.09,2.08v5.85a2.38,2.38,0,0,1-2.09,2.07H620v26.38a1.85,1.85,0,0,1-1.89,1.62h-7.32a1.75,1.75,0,0,1-1.79-1.62V376.83a1.94,1.94,0,0,1,1.79-1.83H648.1a2,2,0,0,1,1.9,1.83v5.85Z" transform="translate(-487.54 -374)"/><path class="cls-2" d="M506.1,410.95c8.51,2.74,12.35,5.49,12.35,11.25,0,5.49-3.84,8.51-11.89,8.51a32.37,32.37,0,0,1-15.82-3.61c-1.14-.59-2-0.18-2.1,1L488,435a1.86,1.86,0,0,0,1.1,2c4.89,2.38,11,3.25,16.78,3.25,16.1,0,23.5-6.68,23.5-18.47,0-9.88-5.76-15.64-19.75-20.39-8.32-2.83-11.16-6.13-11.16-10.61s3.2-7.22,11.25-7.22a36.66,36.66,0,0,1,13.53,2.56c1.19,0.5,2,.18,2.1-1l0.5-6.49a1.68,1.68,0,0,0-1.05-1.87,43,43,0,0,0-15.46-2.7c-14.08,0-21.86,6.22-21.86,16.92C487.54,401.07,493.94,407,506.1,410.95Z" transform="translate(-487.54 -374)"/><path class="cls-2" d="M591.78,375h-7.32a1.67,1.67,0,0,0-1.46,1.83v36.4c0,11-4.3,17.47-15,17.47s-15-6.49-15-17.47v-36.4a2.27,2.27,0,0,0-2.19-1.83h-7.32a1.69,1.69,0,0,0-1.49,1.83v37c0,17.92,10.91,26.34,26,26.34s26-8.41,26-26.34v-37C594,375.92,592.7,375,591.78,375Z" transform="translate(-487.54 -374)"/><path class="cls-2" d="M648.1,375H610.79a1.94,1.94,0,0,0-1.79,1.83v60.54a1.75,1.75,0,0,0,1.79,1.62h7.32a1.85,1.85,0,0,0,1.89-1.62V411h25.91a2.38,2.38,0,0,0,2.09-2.07v-5.85a2.31,2.31,0,0,0-2.09-2.08H620V384h28.1c0.92,0,1.9-.31,1.9-1.31v-5.85A2,2,0,0,0,648.1,375Z" transform="translate(-487.54 -374)"/><path class="cls-3" d="M697.54,388.09v0h0Z" transform="translate(-487.54 -374)"/><path class="cls-3" d="M664.65,388.1a6,6,0,0,1,3.55,2.37c1.1,1.23,2.13,2.39,4.25,2.39s3.15-1.16,4.25-2.39,2.18-2.44,4.36-2.44,3.29,1.24,4.36,2.44,2.13,2.39,4.25,2.39,3.15-1.16,4.25-2.39a5.93,5.93,0,0,1,3.6-2.38v0A16.64,16.64,0,0,0,664.65,388.1Z" transform="translate(-487.54 -374)"/><path class="cls-2" d="M698,393.22c0-.84.11-1.7,0.11-2.58,0-.19-0.11-0.37-0.11-0.55h0a13,13,0,0,0-.31-1.86s0.15-.08.15-0.12H698v5.13Z" transform="translate(-487.54 -374)"/><path class="cls-2" d="M694.17,390.47c-1.1,1.23-2.25,2.39-4.37,2.39s-3.21-1.16-4.31-2.39S683.29,388,681.1,388s-3.31,1.24-4.38,2.44-2.14,2.39-4.26,2.39-3.16-1.16-4.25-2.39a6,6,0,0,0-3.56-2.37c0,0.07-.26.14-0.27,0.21a13.1,13.1,0,0,0-.39,1.76h0c0,0.18.22,0.37,0.22,0.55a16.71,16.71,0,0,0,.8,4.73c0,0.05.09,0.1,0.1,0.15a16.68,16.68,0,0,0,31.87,0c0-.05.27-0.1,0.28-0.15,0.21-.7-0.28-1.42.72-2.15V388.1A5.67,5.67,0,0,0,694.17,390.47Z" transform="translate(-487.54 -374)"/></svg>